<?xml version="1.0" encoding="UTF-8" standalone="no"?>
<!-- Created with Inkscape (http://www.inkscape.org/) -->

<svg
   version="1.1"
   id="svg1"
   width="880"
   height="880"
   viewBox="0 0 880 880"
   sodipodi:docname="unidentified-flying-object.svg"
   inkscape:version="1.3.2 (091e20e, 2023-11-25, custom)"
   xmlns:inkscape="http://www.inkscape.org/namespaces/inkscape"
   xmlns:sodipodi="http://sodipodi.sourceforge.net/DTD/sodipodi-0.dtd"
   xmlns="http://www.w3.org/2000/svg"
   xmlns:svg="http://www.w3.org/2000/svg">
  <defs
     id="defs1">
    <clipPath
       clipPathUnits="userSpaceOnUse"
       id="clipPath4">
      <path
         d="M 0,660 H 660 V 0 H 0 Z"
         transform="translate(-660.52832,-217.85841)"
         id="path4" />
    </clipPath>
    <clipPath
       clipPathUnits="userSpaceOnUse"
       id="clipPath6">
      <path
         d="M 0,660 H 660 V 0 H 0 Z"
         transform="translate(-660.52832,-156.9727)"
         id="path6" />
    </clipPath>
    <clipPath
       clipPathUnits="userSpaceOnUse"
       id="clipPath8">
      <path
         d="M 0,660 H 660 V 0 H 0 Z"
         transform="translate(-338.03521,-324.57521)"
         id="path8" />
    </clipPath>
    <clipPath
       clipPathUnits="userSpaceOnUse"
       id="clipPath10">
      <path
         d="M 0,660 H 660 V 0 H 0 Z"
         transform="translate(-288.6646)"
         id="path10" />
    </clipPath>
    <clipPath
       clipPathUnits="userSpaceOnUse"
       id="clipPath12">
      <path
         d="M 0,660 H 660 V 0 H 0 Z"
         transform="translate(-313.83741,-165.4971)"
         id="path12" />
    </clipPath>
    <clipPath
       clipPathUnits="userSpaceOnUse"
       id="clipPath14">
      <path
         d="M 0,660 H 660 V 0 H 0 Z"
         transform="translate(-660.52832,-116.7852)"
         id="path14" />
    </clipPath>
    <clipPath
       clipPathUnits="userSpaceOnUse"
       id="clipPath16">
      <path
         d="M 0,660 H 660 V 0 H 0 Z"
         transform="translate(-551.78032,-459.49761)"
         id="path16" />
    </clipPath>
    <clipPath
       clipPathUnits="userSpaceOnUse"
       id="clipPath18">
      <path
         d="M 0,660 H 660 V 0 H 0 Z"
         transform="translate(-551.78032,-482.49951)"
         id="path18" />
    </clipPath>
    <clipPath
       clipPathUnits="userSpaceOnUse"
       id="clipPath20">
      <path
         d="M 0,660 H 660 V 0 H 0 Z"
         transform="translate(-316.53661,-507.33791)"
         id="path20" />
    </clipPath>
    <clipPath
       clipPathUnits="userSpaceOnUse"
       id="clipPath22">
      <path
         d="M 0,660 H 660 V 0 H 0 Z"
         transform="translate(-210.0415,-368.02831)"
         id="path22" />
    </clipPath>
    <clipPath
       clipPathUnits="userSpaceOnUse"
       id="clipPath24">
      <path
         d="M 0,660 H 660 V 0 H 0 Z"
         transform="translate(-316.53661,-507.33791)"
         id="path24" />
    </clipPath>
    <clipPath
       clipPathUnits="userSpaceOnUse"
       id="clipPath26">
      <path
         d="M 0,660 H 660 V 0 H 0 Z"
         transform="translate(-267.0142,-426.53711)"
         id="path26" />
    </clipPath>
    <clipPath
       clipPathUnits="userSpaceOnUse"
       id="clipPath28">
      <path
         d="M 0,660 H 660 V 0 H 0 Z"
         transform="translate(-316.53661,-507.33791)"
         id="path28" />
    </clipPath>
    <clipPath
       clipPathUnits="userSpaceOnUse"
       id="clipPath30">
      <path
         d="M 0,660 H 660 V 0 H 0 Z"
         transform="translate(-51.777802,-460.71731)"
         id="path30" />
    </clipPath>
    <clipPath
       clipPathUnits="userSpaceOnUse"
       id="clipPath32">
      <path
         d="M 0,660 H 660 V 0 H 0 Z"
         transform="translate(-282.44091,-455.35641)"
         id="path32" />
    </clipPath>
    <clipPath
       clipPathUnits="userSpaceOnUse"
       id="clipPath34">
      <path
         d="M 0,660 H 660 V 0 H 0 Z"
         transform="translate(-51.777802,-460.71731)"
         id="path34" />
    </clipPath>
    <clipPath
       clipPathUnits="userSpaceOnUse"
       id="clipPath36">
      <path
         d="M 0,660 H 660 V 0 H 0 Z"
         transform="translate(-417.13871,-532.71142)"
         id="path36" />
    </clipPath>
  </defs>
  <sodipodi:namedview
     id="namedview1"
     pagecolor="#ffffff"
     bordercolor="#000000"
     borderopacity="0.25"
     inkscape:showpageshadow="2"
     inkscape:pageopacity="0.0"
     inkscape:pagecheckerboard="0"
     inkscape:deskcolor="#d1d1d1"
     inkscape:zoom="0.69318182"
     inkscape:cx="439.27869"
     inkscape:cy="440"
     inkscape:window-width="1440"
     inkscape:window-height="830"
     inkscape:window-x="-6"
     inkscape:window-y="-6"
     inkscape:window-maximized="1"
     inkscape:current-layer="g1">
    <inkscape:page
       x="0"
       y="0"
       inkscape:label="1"
       id="page1"
       width="880"
       height="880"
       margin="0"
       bleed="0" />
  </sodipodi:namedview>
  <g
     id="g1"
     inkscape:groupmode="layer"
     inkscape:label="1">
    <g
       id="group-MC0">
      <path
         id="path2"
         d="M 0,0 H 660 V 660 H 0 Z"
         style="fill:#7d6f6a;fill-opacity:1;fill-rule:nonzero;stroke:none"
         transform="matrix(1.3333333,0,0,-1.3333333,0,880)" />
      <path
         id="path3"
         d="M 0,0 V -217.858 H -660.528 V -0.527 c 45.428,-18.931 92.62,-23.608 141.363,-14 38.277,7.544 72.494,6.66 110.331,-2.855 40.926,-10.291 81.948,-9.761 123.307,1.582 43.276,11.868 83.004,12.429 126.596,1.786 45.205,-11.038 90.519,-8.79 137.007,6.705 z"
         style="fill:#5e534f;fill-opacity:1;fill-rule:evenodd;stroke:none"
         transform="matrix(1.3333333,0,0,-1.3333333,880.7044,589.52213)"
         clip-path="url(#clipPath4)" />
      <path
         id="path5"
         d="M 0,0 V -156.973 H -660.528 V 13.289 c 12.602,-0.626 25.314,-2.309 38.03,-5.143 23.876,-5.321 48.863,-6.513 75.055,-3.604 23.796,2.645 47.313,1.268 71.017,-4.141 41.16,-9.391 78.651,-7.832 118.887,4.952 38.724,12.301 77.192,14.126 115.188,5.48 35.937,-8.176 68.371,-7.902 104.165,0.882 C -92.483,22.93 -45.796,19.04 0,0"
         style="fill:#453e3b;fill-opacity:1;fill-rule:evenodd;stroke:none"
         transform="matrix(1.3333333,0,0,-1.3333333,880.7044,670.70307)"
         clip-path="url(#clipPath6)" />
      <path
         id="path7"
         d="m 0,0 -49.371,-324.575 h -288.664 v 66.353 l 194.413,298.615 z"
         style="fill:#b5a7a3;fill-opacity:1;fill-rule:evenodd;stroke:none"
         transform="matrix(1.3333333,0,0,-1.3333333,450.7136,447.23307)"
         clip-path="url(#clipPath8)" />
      <path
         id="path9"
         d="m 0,0 h -288.665 v 66.354 l 86.085,132.223 c 18.191,-0.506 36.621,1.076 55.278,4.754 38.278,7.544 72.495,6.66 110.331,-2.854 22.082,-5.552 44.192,-7.954 66.369,-7.207 z"
         style="fill:#948884;fill-opacity:1;fill-rule:evenodd;stroke:none"
         transform="matrix(1.3333333,0,0,-1.3333333,384.88613,880)"
         clip-path="url(#clipPath10)" />
      <path
         id="path11"
         d="m 0,0 -25.173,-165.497 h -288.664 v 66.353 l 61.767,94.873 c 16.578,-1.77 33.675,-1.671 51.318,0.288 23.796,2.645 47.313,1.268 71.017,-4.14 41.16,-9.392 78.651,-7.832 118.887,4.951 C -7.228,-2.024 -3.612,-0.966 0,0"
         style="fill:#7d726f;fill-opacity:1;fill-rule:evenodd;stroke:none"
         transform="matrix(1.3333333,0,0,-1.3333333,418.44987,659.3372)"
         clip-path="url(#clipPath12)" />
      <path
         id="path13"
         d="M 0,0 V -116.785 H -660.528 V -9.919 l 2.94,-2.156 c 46.689,-34.256 105.315,-38.926 155.948,-13.215 45,22.849 93.93,22.368 138.469,-1.364 45.634,-24.314 98.528,-23.526 142.752,1.41 35.973,20.284 74.155,24.923 113.938,13.843 34.853,-9.708 71.327,-6.094 105.574,10.948 z"
         style="fill:#332d2a;fill-opacity:1;fill-rule:evenodd;stroke:none"
         transform="matrix(1.3333333,0,0,-1.3333333,880.7044,724.2864)"
         clip-path="url(#clipPath14)" />
      <path
         id="path15"
         d="m 0,0 c 40.787,0 74.056,33.266 74.056,74.054 0,40.788 -33.269,74.055 -74.056,74.055 -40.788,0 -74.055,-33.267 -74.055,-74.055 C -74.055,33.266 -40.788,0 0,0"
         style="fill:#8a7c77;fill-opacity:1;fill-rule:evenodd;stroke:none"
         transform="matrix(1.3333333,0,0,-1.3333333,735.70707,267.33653)"
         clip-path="url(#clipPath16)" />
      <path
         id="path17"
         d="m 0,0 c 28.119,0 51.053,22.934 51.053,51.052 0,28.119 -22.934,51.053 -51.053,51.053 -28.12,0 -51.052,-22.934 -51.052,-51.053 C -51.052,22.934 -28.12,0 0,0"
         style="fill:#d6cbc7;fill-opacity:1;fill-rule:evenodd;stroke:none"
         transform="matrix(1.3333333,0,0,-1.3333333,735.70707,236.66733)"
         clip-path="url(#clipPath18)" />
      <path
         id="path19"
         d="m 0,0 -71.809,0.441 -14.941,-26.104 -30.352,-0.115 -11.635,-20.329 -136.022,-0.514 -13.08,-22.854 236.771,-96.501 248.441,-31.549 -0.099,26.33 -118.056,67.566 -0.088,23.423 -26.343,15.078 -0.113,30.077 z"
         style="fill:#4d4441;fill-opacity:1;fill-rule:evenodd;stroke:none"
         transform="matrix(1.3333333,0,0,-1.3333333,422.0488,203.54947)"
         clip-path="url(#clipPath20)" />
      <path
         id="path21"
         d="m 0,0 65.427,-26.666 248.441,-31.55 -0.099,26.33 -118.056,67.567 -0.087,23.423 -26.344,15.077 -0.113,30.078 L 106.495,139.31 80.85,116.194 72.399,87.326 64.017,82.564 56.973,58.505 -3.619,18.686 Z"
         style="fill:#695c57;fill-opacity:1;fill-rule:evenodd;stroke:none"
         transform="matrix(1.3333333,0,0,-1.3333333,280.05533,389.2956)"
         clip-path="url(#clipPath22)" />
      <path
         id="path23"
         d="m 0,0 -71.809,0.441 -14.941,-26.104 -30.352,-0.115 -11.635,-20.329 c -9.357,-16.304 219.467,-76.958 217.955,-57.522 l -0.088,23.423 -26.343,15.078 -0.113,30.077 z"
         style="fill:#695c57;fill-opacity:1;fill-rule:evenodd;stroke:none"
         transform="matrix(1.3333333,0,0,-1.3333333,422.0488,203.54947)"
         clip-path="url(#clipPath24)" />
      <path
         id="path25"
         d="M 0,0 C 62.741,-18.375 139.619,-34.121 138.741,-22.828 L 138.653,0.595 112.309,15.672 112.197,45.75 49.522,80.801 23.877,57.686 15.427,28.817 7.044,24.055 Z"
         style="fill:#998b86;fill-opacity:1;fill-rule:evenodd;stroke:none"
         transform="matrix(1.3333333,0,0,-1.3333333,356.01893,311.28387)"
         clip-path="url(#clipPath26)" />
      <path
         id="path27"
         d="M 0,0 -71.809,0.441 -86.75,-25.663 c -9.035,-15.789 149.595,-54.91 149.537,-39.465 l -0.113,30.077 z"
         style="fill:#998b86;fill-opacity:1;fill-rule:evenodd;stroke:none"
         transform="matrix(1.3333333,0,0,-1.3333333,422.0488,203.54947)"
         clip-path="url(#clipPath28)" />
      <path
         id="path29"
         d="m 0,0 -13.08,-22.854 c -11.33,-19.796 41.14,-54.374 116.419,-81.798 4.734,-15.923 50.288,-39.194 107.409,-54.27 57.119,-15.074 106.253,-17.225 119.455,-6.453 79.347,-13.858 142.019,-9.672 141.928,14.47 l -0.098,26.33 C 471.755,-165.222 -25.497,-42.983 0,0"
         style="fill:#d6cbc7;fill-opacity:1;fill-rule:evenodd;stroke:none"
         transform="matrix(1.3333333,0,0,-1.3333333,69.037067,265.71027)"
         clip-path="url(#clipPath30)" />
      <path
         id="path31"
         d="M 0,0 C 43.145,-12.63 96.918,-22.139 96.882,-13.147 L 96.77,16.931 34.096,51.982 8.45,28.866 Z"
         style="fill:#b5a7a3;fill-opacity:1;fill-rule:evenodd;stroke:none"
         transform="matrix(1.3333333,0,0,-1.3333333,376.58787,272.85813)"
         clip-path="url(#clipPath32)" />
      <path
         id="path33"
         d="m 0,0 -13.08,-22.854 c -11.33,-19.796 42.262,-49.326 117.54,-76.749 4.734,-15.924 49.727,-39.046 107.409,-54.27 56.557,-14.925 106.255,-17.226 119.456,-6.456 79.346,-13.857 140.897,-14.718 140.806,9.424 l -0.098,26.33 C 471.755,-165.222 -25.497,-42.983 0,0"
         style="fill:#332d2a;fill-opacity:1;fill-rule:evenodd;stroke:none"
         transform="matrix(1.3333333,0,0,-1.3333333,69.037067,265.71027)"
         clip-path="url(#clipPath34)" />
      <path
         id="path35"
         d="M 0,0 1.319,-4.292 5.61,-5.61 1.319,-6.929 0,-11.22 l -1.318,4.291 -4.291,1.319 4.291,1.318 z m 102.946,-97.617 0.988,-3.217 3.22,-0.991 -3.22,-0.987 -0.988,-3.22 -0.988,3.22 -3.22,0.987 3.22,0.991 z m 63.675,-60.59 1.846,-6.008 6.009,-1.845 -6.009,-1.846 -1.846,-6.008 -1.845,6.008 -6.009,1.846 6.009,1.845 z m -46.845,-90.321 1.121,-3.649 3.648,-1.121 -3.648,-1.121 -1.121,-3.648 -1.119,3.648 -3.648,1.121 3.648,1.121 z m -485.558,-1.123 1.187,-3.863 3.863,-1.187 -3.863,-1.187 -1.187,-3.86 -1.186,3.86 -3.863,1.187 3.863,1.187 z m 34.222,298.459 2.11,-6.867 6.867,-2.109 -6.867,-2.11 -2.11,-6.867 -2.109,6.867 -6.867,2.11 6.867,2.109 z m 106.033,-7.854 1.977,-6.438 6.438,-1.977 -6.438,-1.978 -1.977,-6.437 -1.978,6.437 -6.437,1.978 6.437,1.977 z m -60.59,-59.468 1.45,-4.72 4.721,-1.451 -4.721,-1.45 -1.45,-4.721 -1.45,4.721 -4.721,1.45 4.721,1.451 z m 263.676,-252.455 1.979,-6.439 6.438,-1.976 -6.438,-1.98 -1.979,-6.435 -1.977,6.435 -6.437,1.98 6.437,1.976 z m 224.407,11.221 3.031,-9.873 9.872,-3.032 -9.872,-3.033 -3.031,-9.87 -3.033,9.87 -9.872,3.033 9.872,3.032 z m -2.806,357.924 1.318,-4.291 4.292,-1.318 -4.292,-1.318 -1.318,-4.292 -1.318,4.292 -4.291,1.318 4.291,1.318 z m -361.293,-1.12 3.164,-10.301 10.3,-3.164 -10.3,-3.164 -3.164,-10.3 -3.165,10.3 -10.3,3.164 10.3,3.164 z m 123.144,-21.88 1.384,-4.507 4.507,-1.384 -4.507,-1.384 -1.384,-4.506 -1.384,4.506 -4.508,1.384 4.508,1.384 z"
         style="fill:#b5a7a3;fill-opacity:1;fill-rule:evenodd;stroke:none"
         transform="matrix(1.3333333,0,0,-1.3333333,556.18493,169.71813)"
         clip-path="url(#clipPath36)" />
    </g>
  </g>
</svg>
